<svg width="27" height="28" viewBox="0 0 27 28" fill="none" xmlns="http://www.w3.org/2000/svg">
<path opacity="0.2" d="M25.9615 14C25.9615 16.4647 25.2307 18.874 23.8614 20.9233C22.4921 22.9726 20.5459 24.5698 18.2688 25.513C15.9918 26.4562 13.4862 26.7029 11.0689 26.2221C8.65157 25.7413 6.43113 24.5544 4.68836 22.8117C2.94558 21.0689 1.75873 18.8484 1.2779 16.4311C0.797072 14.0138 1.04385 11.5082 1.98704 9.23119C2.93022 6.95415 4.52745 5.00792 6.57674 3.63863C8.62603 2.26934 11.0353 1.53848 13.5 1.53848C16.805 1.53848 19.9746 2.85139 22.3116 5.18838C24.6486 7.52537 25.9615 10.695 25.9615 14Z" fill="#CE0707"/>
<path d="M13.5 0.5C10.83 0.5 8.21987 1.29176 5.99981 2.77516C3.77974 4.25856 2.04942 6.36697 1.02763 8.83377C0.00584934 11.3006 -0.261496 14.015 0.259405 16.6337C0.780305 19.2525 2.06606 21.6579 3.95406 23.5459C5.84207 25.4339 8.24754 26.7197 10.8663 27.2406C13.485 27.7615 16.1994 27.4942 18.6662 26.4724C21.133 25.4506 23.2414 23.7203 24.7248 21.5002C26.2082 19.2801 27 16.67 27 14C26.9962 10.4207 25.5727 6.98915 23.0418 4.45823C20.5108 1.92731 17.0793 0.50378 13.5 0.5ZM13.5 25.4231C11.2407 25.4231 9.0322 24.7531 7.15368 23.4979C5.27517 22.2428 3.81104 20.4587 2.94646 18.3714C2.08187 16.2841 1.85566 13.9873 2.29642 11.7715C2.73718 9.55561 3.82512 7.52021 5.42267 5.92266C7.02022 4.32512 9.05561 3.23718 11.2715 2.79641C13.4873 2.35565 15.7841 2.58187 17.8714 3.44645C19.9587 4.31104 21.7428 5.77516 22.9979 7.65368C24.2531 9.53219 24.9231 11.7407 24.9231 14C24.9196 17.0285 23.715 19.932 21.5735 22.0735C19.432 24.215 16.5285 25.4196 13.5 25.4231ZM18.3886 14.3037C18.4851 14.4002 18.5617 14.5147 18.614 14.6408C18.6662 14.7669 18.6931 14.902 18.6931 15.0385C18.6931 15.1749 18.6662 15.3101 18.614 15.4361C18.5617 15.5622 18.4851 15.6767 18.3886 15.7732L14.2347 19.927C14.1383 20.0236 14.0237 20.1002 13.8977 20.1524C13.7716 20.2047 13.6365 20.2316 13.5 20.2316C13.3635 20.2316 13.2284 20.2047 13.1023 20.1524C12.9763 20.1002 12.8617 20.0236 12.7653 19.927L8.61145 15.7732C8.41659 15.5783 8.30712 15.314 8.30712 15.0385C8.30712 14.7629 8.41659 14.4986 8.61145 14.3037C8.8063 14.1089 9.07059 13.9994 9.34616 13.9994C9.62173 13.9994 9.88601 14.1089 10.0809 14.3037L12.4615 16.6857V8.80769C12.4615 8.53227 12.571 8.26814 12.7657 8.07339C12.9604 7.87864 13.2246 7.76923 13.5 7.76923C13.7754 7.76923 14.0396 7.87864 14.2343 8.07339C14.4291 8.26814 14.5385 8.53227 14.5385 8.80769V16.6857L16.9191 14.3037C17.0156 14.2072 17.1301 14.1306 17.2562 14.0783C17.3822 14.0261 17.5174 13.9992 17.6538 13.9992C17.7903 13.9992 17.9254 14.0261 18.0515 14.0783C18.1776 14.1306 18.2921 14.2072 18.3886 14.3037Z" fill="#DC2626"/>
</svg>
