<svg width="27" height="28" viewBox="0 0 27 28" fill="none" xmlns="http://www.w3.org/2000/svg">
<g opacity="0.2">
<path d="M26.3846 14.6923C26.3846 17.2026 25.6402 19.6565 24.2456 21.7438C22.8509 23.831 20.8687 25.4578 18.5494 26.4185C16.2302 27.3791 13.6782 27.6305 11.2162 27.1407C8.7541 26.651 6.49255 25.4422 4.7175 23.6671C2.94245 21.8921 1.73362 19.6305 1.24388 17.1685C0.754149 14.7064 1.0055 12.1544 1.96615 9.83517C2.9268 7.51595 4.55361 5.53369 6.64084 4.13904C8.72808 2.74439 11.182 2 13.6923 2C17.0585 2 20.2869 3.33722 22.6671 5.71749C25.0474 8.09776 26.3846 11.3261 26.3846 14.6923Z" fill="#24FF00"/>
<path d="M26.3846 14.6923C26.3846 17.2026 25.6402 19.6565 24.2456 21.7438C22.8509 23.831 20.8687 25.4578 18.5494 26.4185C16.2302 27.3791 13.6782 27.6305 11.2162 27.1407C8.7541 26.651 6.49255 25.4422 4.7175 23.6671C2.94245 21.8921 1.73362 19.6305 1.24388 17.1685C0.754149 14.7064 1.0055 12.1544 1.96615 9.83517C2.9268 7.51595 4.55361 5.53369 6.64084 4.13904C8.72808 2.74439 11.182 2 13.6923 2C17.0585 2 20.2869 3.33722 22.6671 5.71749C25.0474 8.09776 26.3846 11.3261 26.3846 14.6923Z" fill="black" fill-opacity="0.2"/>
</g>
<path d="M13.5 0.5C10.83 0.5 8.21987 1.29176 5.99981 2.77516C3.77974 4.25856 2.04942 6.36697 1.02763 8.83377C0.00584934 11.3006 -0.261496 14.015 0.259405 16.6337C0.780305 19.2525 2.06606 21.6579 3.95406 23.5459C5.84207 25.4339 8.24754 26.7197 10.8663 27.2406C13.485 27.7615 16.1994 27.4942 18.6662 26.4724C21.133 25.4506 23.2414 23.7203 24.7248 21.5002C26.2082 19.2801 27 16.67 27 14C26.9962 10.4207 25.5727 6.98915 23.0418 4.45823C20.5108 1.92731 17.0793 0.50378 13.5 0.5ZM13.5 25.4231C11.2407 25.4231 9.0322 24.7531 7.15368 23.4979C5.27517 22.2428 3.81104 20.4587 2.94646 18.3714C2.08187 16.2841 1.85566 13.9873 2.29642 11.7715C2.73718 9.55561 3.82512 7.52021 5.42267 5.92266C7.02022 4.32512 9.05561 3.23718 11.2715 2.79641C13.4873 2.35565 15.7841 2.58187 17.8714 3.44645C19.9587 4.31104 21.7428 5.77516 22.9979 7.65368C24.2531 9.53219 24.9231 11.7407 24.9231 14C24.9196 17.0285 23.715 19.932 21.5735 22.0735C19.432 24.215 16.5285 25.4196 13.5 25.4231ZM18.3886 12.2268C18.485 12.3233 18.5616 12.4379 18.6138 12.5639C18.666 12.69 18.6929 12.8251 18.6929 12.9615C18.6929 13.098 18.666 13.2331 18.6138 13.3592C18.5616 13.4852 18.485 13.5998 18.3886 13.6962C18.2921 13.7927 18.1775 13.8693 18.0515 13.9215C17.9254 13.9737 17.7903 14.0006 17.6538 14.0006C17.5174 14.0006 17.3823 13.9737 17.2562 13.9215C17.1302 13.8693 17.0156 13.7927 16.9191 13.6962L14.5385 11.3143V19.1923C14.5385 19.4677 14.4291 19.7319 14.2343 19.9266C14.0396 20.1214 13.7754 20.2308 13.5 20.2308C13.2246 20.2308 12.9604 20.1214 12.7657 19.9266C12.571 19.7319 12.4615 19.4677 12.4615 19.1923V11.3143L10.0809 13.6962C9.88601 13.8911 9.62173 14.0006 9.34616 14.0006C9.07059 14.0006 8.8063 13.8911 8.61145 13.6962C8.41659 13.5014 8.30712 13.2371 8.30712 12.9615C8.30712 12.686 8.41659 12.4217 8.61145 12.2268L12.7653 8.07298C12.8617 7.97643 12.9763 7.89983 13.1023 7.84757C13.2284 7.79531 13.3635 7.76841 13.5 7.76841C13.6365 7.76841 13.7716 7.79531 13.8977 7.84757C14.0237 7.89983 14.1383 7.97643 14.2347 8.07298L18.3886 12.2268Z" fill="#22C55E"/>
</svg>
