<svg width="68" height="68" viewBox="0 0 68 68" fill="none" xmlns="http://www.w3.org/2000/svg">
<g filter="url(#filter0_d_11_15)">
<rect opacity="0.3" x="4" width="60" height="60" rx="16" fill="#22C55E"/>
<path d="M34 25C33.0111 25 32.0444 25.2932 31.2221 25.8427C30.3999 26.3921 29.759 27.173 29.3806 28.0866C29.0022 29.0002 28.9031 30.0055 29.0961 30.9755C29.289 31.9454 29.7652 32.8363 30.4645 33.5355C31.1637 34.2348 32.0546 34.711 33.0245 34.9039C33.9945 35.0969 34.9998 34.9978 35.9134 34.6194C36.827 34.241 37.6079 33.6001 38.1573 32.7779C38.7068 31.9556 39 30.9889 39 30C39 28.6739 38.4732 27.4021 37.5355 26.4645C36.5979 25.5268 35.3261 25 34 25ZM34 33C33.4067 33 32.8266 32.8241 32.3333 32.4944C31.8399 32.1648 31.4554 31.6962 31.2284 31.1481C31.0013 30.5999 30.9419 29.9967 31.0576 29.4147C31.1734 28.8328 31.4591 28.2982 31.8787 27.8787C32.2982 27.4591 32.8328 27.1734 33.4147 27.0576C33.9967 26.9419 34.5999 27.0013 35.1481 27.2284C35.6962 27.4554 36.1648 27.8399 36.4944 28.3333C36.8241 28.8266 37 29.4067 37 30C37 30.7956 36.6839 31.5587 36.1213 32.1213C35.5587 32.6839 34.7956 33 34 33ZM48 21H20C19.7348 21 19.4804 21.1054 19.2929 21.2929C19.1054 21.4804 19 21.7348 19 22V38C19 38.2652 19.1054 38.5196 19.2929 38.7071C19.4804 38.8946 19.7348 39 20 39H48C48.2652 39 48.5196 38.8946 48.7071 38.7071C48.8946 38.5196 49 38.2652 49 38V22C49 21.7348 48.8946 21.4804 48.7071 21.2929C48.5196 21.1054 48.2652 21 48 21ZM42.2062 37H25.7937C25.458 35.8645 24.8435 34.8311 24.0062 33.9938C23.1689 33.1565 22.1355 32.542 21 32.2062V27.7937C22.1355 27.458 23.1689 26.8435 24.0062 26.0062C24.8435 25.1689 25.458 24.1355 25.7937 23H42.2062C42.542 24.1355 43.1565 25.1689 43.9938 26.0062C44.8311 26.8435 45.8645 27.458 47 27.7937V32.2062C45.8645 32.542 44.8311 33.1565 43.9938 33.9938C43.1565 34.8311 42.542 35.8645 42.2062 37ZM47 25.6713C45.8005 25.1555 44.8445 24.1995 44.3288 23H47V25.6713ZM23.6712 23C23.1555 24.1995 22.1995 25.1555 21 25.6713V23H23.6712ZM21 34.3288C22.1995 34.8445 23.1555 35.8005 23.6712 37H21V34.3288ZM44.3288 37C44.8445 35.8005 45.8005 34.8445 47 34.3288V37H44.3288Z" fill="#22C55E"/>
</g>
<defs>
<filter id="filter0_d_11_15" x="0" y="0" width="68" height="68" filterUnits="userSpaceOnUse" color-interpolation-filters="sRGB">
<feFlood flood-opacity="0" result="BackgroundImageFix"/>
<feColorMatrix in="SourceAlpha" type="matrix" values="0 0 0 0 0 0 0 0 0 0 0 0 0 0 0 0 0 0 127 0" result="hardAlpha"/>
<feOffset dy="4"/>
<feGaussianBlur stdDeviation="2"/>
<feComposite in2="hardAlpha" operator="out"/>
<feColorMatrix type="matrix" values="0 0 0 0 0 0 0 0 0 0 0 0 0 0 0 0 0 0 0.25 0"/>
<feBlend mode="normal" in2="BackgroundImageFix" result="effect1_dropShadow_11_15"/>
<feBlend mode="normal" in="SourceGraphic" in2="effect1_dropShadow_11_15" result="shape"/>
</filter>
</defs>
</svg>
