<svg width="27" height="27" viewBox="0 0 27 27" fill="none" xmlns="http://www.w3.org/2000/svg">
<path d="M26.7069 24.806L20.4482 18.5485C22.2622 16.3707 23.1668 13.5773 22.9737 10.7494C22.7807 7.92163 21.5048 5.2771 19.4116 3.36599C17.3184 1.45489 14.569 0.424347 11.7353 0.488747C8.90164 0.553147 6.20188 1.70753 4.19766 3.71176C2.19343 5.71598 1.03905 8.41574 0.974648 11.2494C0.910248 14.0831 1.94079 16.8325 3.8519 18.9257C5.763 21.0189 8.40753 22.2948 11.2353 22.4878C14.0632 22.6809 16.8566 21.7763 19.0344 19.9623L25.2919 26.221C25.3848 26.3139 25.4951 26.3876 25.6165 26.4379C25.7379 26.4882 25.868 26.5141 25.9994 26.5141C26.1308 26.5141 26.2609 26.4882 26.3823 26.4379C26.5037 26.3876 26.614 26.3139 26.7069 26.221C26.7998 26.1281 26.8735 26.0178 26.9238 25.8964C26.9741 25.775 27 25.6449 27 25.5135C27 25.3821 26.9741 25.252 26.9238 25.1306C26.8735 25.0092 26.7998 24.8989 26.7069 24.806ZM2.99943 11.5135C2.99943 9.7335 3.52727 7.99344 4.5162 6.5134C5.50514 5.03335 6.91074 3.8798 8.55528 3.19861C10.1998 2.51743 12.0094 2.3392 13.7552 2.68646C15.5011 3.03373 17.1047 3.8909 18.3634 5.14957C19.6221 6.40824 20.4792 8.01189 20.8265 9.75772C21.1738 11.5035 20.9955 13.3131 20.3143 14.9577C19.6332 16.6022 18.4796 18.0078 16.9996 18.9968C15.5195 19.9857 13.7795 20.5135 11.9994 20.5135C9.61329 20.5109 7.32565 19.5618 5.63839 17.8746C3.95114 16.1873 3.00208 13.8997 2.99943 11.5135Z" fill="#FAFAFA"/>
</svg>
