<svg width="31" height="22" viewBox="0 0 31 22" fill="none" xmlns="http://www.w3.org/2000/svg">
<path d="M30.9109 10.5747C30.8657 10.4711 29.7716 8.00487 27.3394 5.53344C24.0986 2.24037 20.0053 0.5 15.5 0.5C10.9947 0.5 6.90137 2.24037 3.66057 5.53344C1.22836 8.00487 0.129154 10.475 0.0891127 10.5747C0.0303588 10.709 0 10.8544 0 11.0013C0 11.1483 0.0303588 11.2936 0.0891127 11.4279C0.134321 11.5316 1.22836 13.9964 3.66057 16.4679C6.90137 19.7596 10.9947 21.5 15.5 21.5C20.0053 21.5 24.0986 19.7596 27.3394 16.4679C29.7716 13.9964 30.8657 11.5316 30.9109 11.4279C30.9696 11.2936 31 11.1483 31 11.0013C31 10.8544 30.9696 10.709 30.9109 10.5747ZM15.5 19.4C11.5242 19.4 8.05095 17.9313 5.1757 15.0359C3.99595 13.8438 2.99225 12.4844 2.19582 11C2.99203 9.51548 3.99576 8.15604 5.1757 6.96406C8.05095 4.06869 11.5242 2.6 15.5 2.6C19.4758 2.6 22.949 4.06869 25.8243 6.96406C27.0063 8.15576 28.0122 9.51519 28.8106 11C27.8793 12.7666 23.8222 19.4 15.5 19.4ZM15.5 4.7C14.2738 4.7 13.075 5.06949 12.0555 5.76174C11.0359 6.45399 10.2412 7.43792 9.77194 8.58909C9.30268 9.74027 9.1799 11.007 9.41913 12.2291C9.65835 13.4511 10.2488 14.5737 11.1159 15.4548C11.983 16.3358 13.0878 16.9359 14.2904 17.1789C15.4931 17.422 16.7397 17.2973 17.8726 16.8204C19.0055 16.3436 19.9739 15.5361 20.6551 14.5001C21.3364 13.4641 21.7 12.246 21.7 11C21.6983 9.32967 21.0445 7.72825 19.8822 6.54715C18.7198 5.36604 17.1438 4.70174 15.5 4.7ZM15.5 15.2C14.6825 15.2 13.8834 14.9537 13.2036 14.4922C12.5239 14.0307 11.9941 13.3747 11.6813 12.6073C11.3685 11.8398 11.2866 10.9953 11.4461 10.1806C11.6056 9.3659 11.9992 8.61753 12.5773 8.03015C13.1553 7.44277 13.8918 7.04276 14.6936 6.8807C15.4954 6.71864 16.3265 6.80182 17.0818 7.11971C17.837 7.43759 18.4826 7.97592 18.9367 8.6666C19.3909 9.35729 19.6333 10.1693 19.6333 11C19.6333 12.1139 19.1979 13.1822 18.4227 13.9698C17.6476 14.7575 16.5962 15.2 15.5 15.2Z" fill="#A1A1AA"/>
</svg>
